<svg width="121" height="56" viewBox="0 0 121 56" fill="none" xmlns="http://www.w3.org/2000/svg">
    <rect x="12" y="4" width="30" height="48" rx="2" fill="#860404"/>
    <rect x="14" y="28" width="26" height="5" fill="white"/>
    <rect x="14" y="28" width="26" height="22" rx="2" fill="white"/>
    <path d="M21.1241 46H16.4835V32.9091H21.1625C22.4792 32.9091 23.6127 33.1712 24.563 33.6953C25.5133 34.2152 26.2441 34.9631 26.7555 35.9389C27.2711 36.9148 27.5289 38.0824 27.5289 39.4418C27.5289 40.8054 27.2711 41.9773 26.7555 42.9574C26.2441 43.9375 25.5091 44.6896 24.5502 45.2138C23.5957 45.7379 22.4537 46 21.1241 46ZM19.2512 43.6286H21.0091C21.8272 43.6286 22.5154 43.4837 23.0737 43.1939C23.6362 42.8999 24.0581 42.446 24.3393 41.8324C24.6248 41.2145 24.7676 40.4176 24.7676 39.4418C24.7676 38.4744 24.6248 37.6839 24.3393 37.0703C24.0581 36.4567 23.6383 36.005 23.0801 35.7152C22.5218 35.4254 21.8336 35.2805 21.0154 35.2805H19.2512V43.6286ZM29.5792 46V32.9091H32.3469V43.718H37.9592V46H29.5792Z" fill="#860404"/>
    <path d="M21.3395 9.45455V24H18.2642V9.45455H21.3395ZM37.2362 16.7273C37.2362 18.3134 36.9355 19.6629 36.3342 20.7756C35.7376 21.8883 34.9232 22.7382 33.891 23.3253C32.8635 23.9077 31.7082 24.1989 30.4251 24.1989C29.1325 24.1989 27.9724 23.9053 26.945 23.3182C25.9175 22.7311 25.1055 21.8812 24.5089 20.7685C23.9123 19.6558 23.614 18.3087 23.614 16.7273C23.614 15.1411 23.9123 13.7917 24.5089 12.679C25.1055 11.5663 25.9175 10.7187 26.945 10.1364C27.9724 9.54924 29.1325 9.25568 30.4251 9.25568C31.7082 9.25568 32.8635 9.54924 33.891 10.1364C34.9232 10.7187 35.7376 11.5663 36.3342 12.679C36.9355 13.7917 37.2362 15.1411 37.2362 16.7273ZM34.1183 16.7273C34.1183 15.6998 33.9644 14.8333 33.6566 14.1278C33.3536 13.4223 32.9251 12.8873 32.3711 12.5227C31.8171 12.1581 31.1684 11.9759 30.4251 11.9759C29.6817 11.9759 29.033 12.1581 28.479 12.5227C27.9251 12.8873 27.4942 13.4223 27.1864 14.1278C26.8834 14.8333 26.7319 15.6998 26.7319 16.7273C26.7319 17.7547 26.8834 18.6212 27.1864 19.3267C27.4942 20.0322 27.9251 20.5672 28.479 20.9318C29.033 21.2964 29.6817 21.4787 30.4251 21.4787C31.1684 21.4787 31.8171 21.2964 32.3711 20.9318C32.9251 20.5672 33.3536 20.0322 33.6566 19.3267C33.9644 18.6212 34.1183 17.7547 34.1183 16.7273Z" fill="white"/>
    <path d="M44.4109 35V30.2727H45.4103V34.176H47.437V35H44.4109ZM49.0983 30.2727V35H48.0989V30.2727H49.0983ZM54.0916 31.9277H53.0806C53.0621 31.7969 53.0244 31.6808 52.9675 31.5792C52.9106 31.4761 52.8375 31.3884 52.7482 31.3161C52.659 31.2437 52.5559 31.1883 52.4389 31.1499C52.3235 31.1114 52.1981 31.0922 52.0627 31.0922C51.818 31.0922 51.6049 31.1529 51.4233 31.2745C51.2417 31.3945 51.1009 31.57 51.0009 31.8008C50.9009 32.0301 50.8509 32.3086 50.8509 32.6364C50.8509 32.9734 50.9009 33.2565 51.0009 33.4858C51.1025 33.7151 51.244 33.8882 51.4256 34.0051C51.6072 34.1221 51.8172 34.1806 52.0558 34.1806C52.1896 34.1806 52.3135 34.1629 52.4274 34.1275C52.5428 34.0921 52.6451 34.0405 52.7344 33.9728C52.8236 33.9036 52.8975 33.8197 52.956 33.7212C53.016 33.6228 53.0575 33.5104 53.0806 33.3842L54.0916 33.3888C54.0655 33.6058 54.0001 33.8151 53.8954 34.0167C53.7923 34.2167 53.6531 34.396 53.4776 34.5545C53.3037 34.7115 53.096 34.8361 52.8544 34.9284C52.6143 35.0192 52.3427 35.0646 52.0396 35.0646C51.618 35.0646 51.2409 34.9692 50.9086 34.7784C50.5777 34.5876 50.3161 34.3114 50.1238 33.9498C49.9329 33.5881 49.8375 33.1503 49.8375 32.6364C49.8375 32.1209 49.9345 31.6823 50.1284 31.3207C50.3223 30.959 50.5854 30.6836 50.9178 30.4943C51.2502 30.3035 51.6241 30.2081 52.0396 30.2081C52.3135 30.2081 52.5674 30.2466 52.8013 30.3235C53.0368 30.4004 53.2453 30.5128 53.4268 30.6605C53.6084 30.8067 53.7562 30.986 53.87 31.1983C53.9854 31.4107 54.0593 31.6538 54.0916 31.9277ZM54.8083 35V30.2727H57.9937V31.0968H55.8078V32.2232H57.8298V33.0472H55.8078V34.176H58.0029V35H54.8083ZM62.7423 30.2727V35H61.879L59.8224 32.0247H59.7878V35H58.7883V30.2727H59.6654L61.7059 33.2457H61.7475V30.2727H62.7423ZM66.1325 31.6323C66.1141 31.4461 66.0348 31.3014 65.8948 31.1983C65.7548 31.0952 65.5647 31.0437 65.3247 31.0437C65.1615 31.0437 65.0238 31.0668 64.9115 31.1129C64.7992 31.1576 64.713 31.2199 64.653 31.2999C64.5945 31.3799 64.5653 31.4707 64.5653 31.5723C64.5622 31.6569 64.5799 31.7308 64.6183 31.7939C64.6584 31.8569 64.713 31.9116 64.7822 31.9577C64.8515 32.0024 64.9315 32.0416 65.0223 32.0755C65.1131 32.1078 65.21 32.1355 65.3131 32.1586L65.7378 32.2601C65.944 32.3063 66.1333 32.3678 66.3057 32.4448C66.478 32.5217 66.6273 32.6164 66.7535 32.7287C66.8796 32.841 66.9774 32.9734 67.0466 33.1257C67.1174 33.2781 67.1536 33.4527 67.1551 33.6497C67.1536 33.939 67.0797 34.1898 66.9335 34.4022C66.7889 34.613 66.5796 34.7769 66.3057 34.8938C66.0333 35.0092 65.7048 35.0669 65.32 35.0669C64.9384 35.0669 64.606 35.0085 64.3229 34.8915C64.0413 34.7746 63.8212 34.6014 63.6627 34.3722C63.5058 34.1413 63.4234 33.8559 63.4157 33.5158H64.3829C64.3937 33.6743 64.4391 33.8066 64.5191 33.9128C64.6006 34.0175 64.7091 34.0967 64.8445 34.1506C64.9815 34.2029 65.1362 34.229 65.3085 34.229C65.4778 34.229 65.6247 34.2044 65.7494 34.1552C65.8756 34.1059 65.9733 34.0375 66.0425 33.9498C66.1118 33.862 66.1464 33.7612 66.1464 33.6474C66.1464 33.5412 66.1148 33.4519 66.0518 33.3796C65.9902 33.3073 65.8994 33.2457 65.7794 33.195C65.6609 33.1442 65.5155 33.098 65.3431 33.0565L64.8284 32.9272C64.4298 32.8303 64.1151 32.6787 63.8843 32.4725C63.6535 32.2663 63.5389 31.9885 63.5404 31.6392C63.5389 31.353 63.615 31.1029 63.7689 30.889C63.9243 30.6751 64.1375 30.5082 64.4083 30.3881C64.6791 30.2681 64.9869 30.2081 65.3316 30.2081C65.6824 30.2081 65.9887 30.2681 66.2503 30.3881C66.5134 30.5082 66.7181 30.6751 66.8643 30.889C67.0104 31.1029 67.0858 31.3507 67.0905 31.6323H66.1325ZM67.8274 35V30.2727H71.0127V31.0968H68.8268V32.2232H70.8489V33.0472H68.8268V34.176H71.022V35H67.8274Z" fill="#860404"/>
    <rect x="44" y="28" width="64" height="0.5" rx="0.25" fill="#860404"/>
    <path d="M45.4103 21.2727V26H44.4109V21.2727H45.4103ZM46.0526 22.0968V21.2727H49.9351V22.0968H48.4878V26H47.4999V22.0968H46.0526ZM50.8116 26H49.7406L51.3725 21.2727H52.6605L54.2901 26H53.2191L52.035 22.353H51.998L50.8116 26ZM50.7447 24.1419H53.2745V24.9221H50.7447V24.1419ZM54.8591 26V21.2727H55.8586V25.176H57.8852V26H54.8591ZM59.5466 21.2727V26H58.5471V21.2727H59.5466ZM61.1837 26H60.1127L61.7446 21.2727H63.0326L64.6622 26H63.5912L62.407 22.353H62.3701L61.1837 26ZM61.1167 24.1419H63.6466V24.9221H61.1167V24.1419ZM69.1852 21.2727V26H68.3219L66.2653 23.0247H66.2306V26H65.2312V21.2727H66.1083L68.1488 24.2457H68.1903V21.2727H69.1852ZM75.8595 23.6364C75.8595 24.1519 75.7617 24.5904 75.5663 24.9521C75.3724 25.3137 75.1077 25.5899 74.7723 25.7807C74.4384 25.97 74.0629 26.0646 73.6459 26.0646C73.2258 26.0646 72.8488 25.9692 72.5148 25.7784C72.1809 25.5876 71.917 25.3114 71.7231 24.9498C71.5292 24.5881 71.4323 24.1503 71.4323 23.6364C71.4323 23.1209 71.5292 22.6823 71.7231 22.3207C71.917 21.959 72.1809 21.6836 72.5148 21.4943C72.8488 21.3035 73.2258 21.2081 73.6459 21.2081C74.0629 21.2081 74.4384 21.3035 74.7723 21.4943C75.1077 21.6836 75.3724 21.959 75.5663 22.3207C75.7617 22.6823 75.8595 23.1209 75.8595 23.6364ZM74.8461 23.6364C74.8461 23.3024 74.7961 23.0208 74.6961 22.7915C74.5976 22.5623 74.4584 22.3884 74.2783 22.2699C74.0983 22.1514 73.8875 22.0922 73.6459 22.0922C73.4043 22.0922 73.1934 22.1514 73.0134 22.2699C72.8334 22.3884 72.6933 22.5623 72.5933 22.7915C72.4948 23.0208 72.4456 23.3024 72.4456 23.6364C72.4456 23.9703 72.4948 24.2519 72.5933 24.4812C72.6933 24.7105 72.8334 24.8844 73.0134 25.0028C73.1934 25.1213 73.4043 25.1806 73.6459 25.1806C73.8875 25.1806 74.0983 25.1213 74.2783 25.0028C74.4584 24.8844 74.5976 24.7105 74.6961 24.4812C74.7961 24.2519 74.8461 23.9703 74.8461 23.6364ZM76.5998 26V21.2727H78.4649C78.8234 21.2727 79.1289 21.3412 79.3813 21.4782C79.6336 21.6136 79.826 21.8021 79.9583 22.0437C80.0922 22.2837 80.1591 22.5607 80.1591 22.8746C80.1591 23.1886 80.0914 23.4656 79.956 23.7056C79.8206 23.9457 79.6244 24.1326 79.3674 24.2665C79.112 24.4004 78.8027 24.4673 78.4395 24.4673H77.2508V23.6664H78.2779C78.4703 23.6664 78.6288 23.6333 78.7534 23.5671C78.8796 23.4994 78.9735 23.4063 79.035 23.2878C79.0981 23.1678 79.1297 23.0301 79.1297 22.8746C79.1297 22.7177 79.0981 22.5807 79.035 22.4638C78.9735 22.3453 78.8796 22.2537 78.7534 22.1891C78.6272 22.1229 78.4672 22.0898 78.2733 22.0898H77.5993V26H76.5998ZM80.8083 26V21.2727H83.9937V22.0968H81.8078V23.2232H83.8298V24.0472H81.8078V25.176H84.0029V26H80.8083ZM88.7423 21.2727V26H87.879L85.8224 23.0247H85.7878V26H84.7883V21.2727H85.6654L87.7059 24.2457H87.7475V21.2727H88.7423ZM92.7483 26H91.0725V21.2727H92.7621C93.2376 21.2727 93.6469 21.3674 93.9901 21.5566C94.3333 21.7444 94.5972 22.0144 94.7818 22.3668C94.968 22.7192 95.0611 23.1409 95.0611 23.6317C95.0611 24.1242 94.968 24.5473 94.7818 24.9013C94.5972 25.2552 94.3317 25.5268 93.9855 25.7161C93.6408 25.9054 93.2284 26 92.7483 26ZM92.072 25.1436H92.7067C93.0022 25.1436 93.2507 25.0913 93.4523 24.9867C93.6554 24.8805 93.8078 24.7166 93.9093 24.495C94.0124 24.2719 94.064 23.9841 94.064 23.6317C94.064 23.2824 94.0124 22.997 93.9093 22.7754C93.8078 22.5538 93.6562 22.3907 93.4546 22.286C93.253 22.1814 93.0045 22.1291 92.709 22.1291H92.072V25.1436ZM96.3497 26H95.2787L96.9106 21.2727H98.1986L99.8282 26H98.7572L97.5731 22.353H97.5361L96.3497 26ZM96.2828 24.1419H98.8126V24.9221H96.2828V24.1419ZM99.6395 22.0968V21.2727H103.522V22.0968H102.075V26H101.087V22.0968H99.6395ZM104.399 26H103.328L104.959 21.2727H106.247L107.877 26H106.806L105.622 22.353H105.585L104.399 26ZM104.332 24.1419H106.861V24.9221H104.332V24.1419Z" fill="#860404"/>
</svg>
